<?xml version="1.0" standalone="no"?>
<!DOCTYPE svg PUBLIC "-//W3C//DTD SVG 20010904//EN"
 "http://www.w3.org/TR/2001/REC-SVG-20010904/DTD/svg10.dtd">
<svg version="1.0" xmlns="http://www.w3.org/2000/svg"
 width="3044.000000pt" height="3044.000000pt" viewBox="0 0 3044.000000 3044.000000"
 preserveAspectRatio="xMidYMid meet">

<g transform="translate(0.000000,3044.000000) scale(0.100000,-0.100000)"
fill="currentColor" stroke="none">
<path d="M15117 28619 c-73 -10 -160 -48 -176 -77 -5 -10 -32 -85 -59 -168
-92 -278 -131 -330 -347 -453 -60 -35 -144 -85 -185 -112 -102 -65 -452 -191
-694 -249 -125 -30 -212 -57 -285 -90 -58 -26 -137 -57 -176 -70 -38 -13 -196
-69 -350 -125 -154 -56 -336 -119 -405 -140 -69 -21 -235 -80 -370 -130 -135
-51 -301 -111 -370 -134 -259 -86 -476 -262 -903 -729 -191 -210 -268 -282
-301 -282 -2 0 -9 15 -15 33 -16 49 17 164 69 239 23 32 40 61 38 64 -3 2 -35
-24 -72 -57 -64 -59 -73 -73 -178 -283 -116 -232 -241 -422 -298 -451 -27 -14
-28 -13 -34 10 -4 14 5 61 19 111 26 89 31 124 17 124 -25 0 -115 -98 -153
-167 -145 -267 -213 -339 -275 -298 -30 19 -32 69 -6 170 14 57 32 90 93 175
44 61 157 254 269 460 l193 355 101 102 c78 80 143 132 293 235 106 73 188
135 183 136 -6 2 -41 -1 -78 -8 -61 -10 -88 -23 -254 -128 -151 -95 -215 -143
-341 -256 -85 -76 -217 -208 -293 -292 -129 -145 -145 -167 -249 -352 -61
-108 -151 -262 -200 -342 -57 -92 -117 -210 -167 -323 l-77 -178 -26 -272
c-39 -415 -79 -541 -224 -706 l-47 -53 -103 15 c-94 14 -106 18 -138 49 -50
48 -73 98 -73 161 0 107 31 356 75 599 25 136 45 252 45 259 0 7 -20 -16 -45
-51 -52 -74 -116 -233 -179 -445 -38 -127 -47 -172 -56 -295 -6 -80 -16 -185
-21 -235 -15 -133 -3 -312 27 -388 34 -86 66 -117 121 -117 41 0 43 -1 43 -29
0 -16 -16 -67 -35 -112 -19 -46 -35 -85 -35 -87 0 -1 9 2 19 8 29 15 104 12
129 -6 24 -17 28 -47 11 -91 -5 -15 -51 -70 -102 -120 l-92 -93 46 0 c76 0
109 -10 109 -32 0 -27 -53 -92 -104 -127 -84 -58 -420 -361 -447 -403 -18 -28
-32 -67 -39 -113 -22 -142 -97 -348 -151 -416 -17 -22 -53 -51 -79 -64 -42
-21 -49 -22 -68 -9 -11 8 -22 24 -24 36 -2 18 -13 8 -59 -53 -52 -70 -137
-206 -172 -275 -29 -56 -100 -65 -126 -15 -21 39 -111 423 -112 478 -1 32 -4
84 -8 117 l-6 58 -42 -74 c-33 -57 -48 -101 -68 -193 -14 -66 -41 -178 -60
-250 -23 -88 -36 -165 -40 -240 -12 -193 -40 -289 -103 -348 -35 -33 -63 -32
-143 8 -38 20 -54 38 -103 119 -55 91 -58 101 -80 225 l-22 131 -17 -72 c-38
-159 -56 -204 -82 -216 -40 -19 -82 7 -91 56 -3 20 -24 122 -46 226 -37 176
-44 197 -102 315 -60 118 -64 133 -76 231 -6 58 -26 191 -44 295 -26 148 -34
182 -39 155 -4 -19 -18 -169 -32 -332 l-25 -297 15 -378 16 -378 35 -36 c34
-35 34 -37 60 -217 l25 -183 -30 -38 -31 -38 41 -29 41 -28 -6 -60 c-3 -32 -6
-67 -6 -76 0 -13 -35 -45 -102 -91 -5 -3 18 -75 50 -160 56 -148 63 -162 212
-381 l155 -227 70 -30 c42 -19 169 -53 315 -86 149 -34 357 -91 531 -145 248
-78 306 -93 430 -109 79 -10 145 -17 147 -16 10 9 -156 109 -283 170 l-150 73
-60 92 c-33 51 -69 106 -79 122 l-19 30 88 -7 c72 -6 123 -20 269 -71 l180
-64 111 11 c60 6 116 12 123 15 8 2 -87 55 -210 117 l-223 113 -9 48 c-4 26
-6 49 -3 52 8 8 155 8 342 -1 148 -6 178 -5 230 10 33 10 56 19 50 21 -5 1
-45 10 -87 19 -73 16 -79 19 -123 71 l-46 53 49 25 c28 14 83 29 131 36 79 11
145 5 280 -26 l23 -5 -7 85 c-6 77 -5 88 14 115 18 25 29 30 87 36 l66 7 -7
71 c-5 68 -4 74 22 105 l28 33 171 -11 c153 -10 184 -15 293 -50 l122 -38 -6
61 c-6 65 -32 206 -41 231 -7 19 194 82 293 91 l72 7 187 -97 c206 -108 197
-109 143 12 -15 34 -54 98 -86 140 -48 65 -58 87 -64 133 -15 112 -14 116 34
133 23 8 86 18 140 22 l99 7 -7 79 c-6 62 -3 87 10 122 l17 44 366 91 c351 87
369 90 424 80 48 -8 60 -15 77 -41 l20 -32 -97 -50 c-53 -27 -127 -75 -163
-105 l-67 -55 44 -86 c38 -77 44 -99 54 -194 13 -127 1 -252 -61 -635 -36
-223 -47 -268 -121 -500 -228 -717 -338 -890 -731 -1146 -277 -181 -580 -288
-1092 -387 -418 -81 -580 -97 -999 -97 -308 0 -328 1 -491 29 -177 30 -363 71
-770 166 -205 49 -446 96 -480 95 -5 -1 52 -27 128 -60 120 -50 190 -71 510
-150 205 -50 464 -106 577 -125 195 -33 217 -35 452 -35 289 0 478 11 751 46
161 20 209 23 255 14 30 -5 57 -12 60 -14 2 -3 -27 -20 -65 -40 -61 -30 -94
-38 -269 -65 -291 -43 -436 -54 -754 -55 -360 0 -455 9 -934 95 -214 38 -394
68 -399 66 -6 -2 13 -20 41 -41 69 -50 197 -84 512 -135 380 -62 555 -75 975
-74 355 0 363 1 564 33 186 29 224 38 420 106 119 41 358 118 531 170 310 93
316 96 470 181 361 201 601 353 740 468 217 181 572 565 807 875 202 267 250
351 362 631 47 119 68 159 85 167 22 10 25 6 54 -56 17 -37 36 -86 42 -109 25
-106 31 -123 45 -123 8 0 19 -17 25 -40 10 -36 8 -45 -24 -108 -35 -69 -91
-122 -131 -122 -17 0 -17 -1 0 -20 30 -33 86 -43 152 -26 31 8 59 14 60 12 9
-9 42 -140 48 -193 6 -53 4 -66 -18 -109 -44 -85 -170 -191 -258 -218 l-39
-11 36 -24 c30 -21 48 -25 117 -25 71 -1 89 3 134 27 73 38 90 36 104 -12 15
-50 8 -70 -81 -231 -53 -96 -85 -141 -137 -192 -64 -63 -220 -168 -250 -168
-23 0 -14 -14 26 -42 l39 -28 103 20 c56 11 150 36 208 57 80 28 122 37 168
37 35 0 66 -4 70 -8 5 -4 8 -34 8 -66 -1 -83 -32 -123 -159 -204 -257 -163
-510 -255 -661 -242 l-70 7 40 -35 c26 -23 78 -49 150 -75 110 -41 111 -41
351 -57 l240 -15 180 45 c98 25 256 71 349 103 149 51 188 69 317 148 l147 90
6 61 c4 34 4 80 0 102 l-7 41 112 56 c111 56 179 74 325 90 33 3 96 13 140 22
53 11 129 16 225 16 134 0 150 -2 215 -27 104 -41 170 -96 210 -176 18 -36 36
-83 39 -103 3 -20 8 -52 11 -71 l6 -35 52 24 c29 13 87 38 130 55 l77 32 -28
49 c-20 36 -50 64 -112 107 -207 143 -382 221 -540 242 -79 10 -245 51 -257
64 -2 2 24 14 57 26 39 15 68 33 81 52 12 16 20 31 18 32 -2 2 -37 20 -76 40
-40 20 -141 81 -224 136 -83 55 -158 100 -168 100 -9 0 -54 18 -99 39 -74 37
-83 44 -109 93 -28 52 -28 55 -27 218 2 254 17 357 64 451 22 43 80 179 130
303 130 325 558 1173 633 1253 30 32 30 32 60 15 16 -9 60 -55 97 -102 136
-169 402 -386 590 -480 l101 -51 47 39 c26 22 66 49 88 60 64 33 327 135 450
176 124 41 149 57 335 217 80 70 143 135 190 197 39 52 69 95 67 97 -2 1 -55
-6 -118 -16 -63 -10 -182 -26 -265 -34 -195 -20 -464 -83 -603 -141 -58 -25
-106 -43 -107 -42 -2 2 -6 17 -9 34 -6 28 -3 34 48 73 44 34 80 50 202 87 355
107 611 198 734 260 134 67 268 170 435 335 52 51 88 79 103 79 12 0 77 -27
143 -61 67 -33 123 -58 126 -56 8 8 -27 69 -74 129 -52 66 -120 127 -253 225
-119 88 -915 518 -976 528 -52 8 -125 -12 -259 -71 -179 -78 -569 -157 -835
-169 -144 -7 -147 -7 -249 25 -56 17 -101 33 -99 36 3 2 42 15 88 29 78 23 98
25 305 25 l222 0 11 25 c22 47 15 107 -17 151 -16 21 -32 49 -35 61 -11 34 19
71 62 79 96 16 141 34 168 70 41 53 75 68 133 55 82 -17 589 -45 676 -36 l80
8 -110 37 c-119 40 -362 153 -486 226 -82 48 -100 75 -72 106 14 16 37 18 217
19 l201 0 -155 78 c-85 43 -221 102 -303 131 -118 42 -152 58 -168 81 -33 47
-12 75 131 175 141 98 137 95 244 125 69 18 95 20 200 14 189 -10 324 -43 546
-135 234 -97 600 -288 733 -384 l98 -71 -53 -24 c-50 -22 -58 -22 -143 -12
-49 6 -103 14 -120 18 l-29 6 31 -40 c21 -26 81 -69 173 -125 124 -76 162
-106 331 -264 184 -173 286 -284 316 -346 17 -34 22 -140 10 -212 l-9 -49 -66
65 c-52 51 -106 87 -241 162 -95 54 -175 95 -178 93 -14 -15 182 -348 446
-753 106 -164 200 -423 241 -664 12 -68 27 -128 33 -133 7 -4 31 -5 53 -2 l42
6 16 -47 c19 -57 21 -121 4 -127 -7 -2 -46 -2 -87 1 l-74 5 7 -29 c4 -16 10
-155 13 -309 l5 -280 -31 -122 c-17 -67 -31 -125 -31 -129 0 -4 9 5 21 20 11
15 38 35 60 46 l38 20 17 -32 c35 -68 -3 -386 -66 -550 -17 -44 -29 -82 -27
-85 3 -2 19 15 36 38 41 56 93 195 131 349 17 69 46 166 65 215 19 50 46 150
60 224 14 74 27 136 28 138 2 1 12 -4 23 -11 17 -13 19 -27 17 -143 -3 -276
-59 -660 -128 -878 -37 -117 -57 -160 -120 -263 -188 -307 -300 -469 -391
-567 -51 -55 -91 -101 -90 -102 1 -2 39 8 83 21 114 34 267 59 317 50 87 -14
159 -72 171 -136 7 -37 6 -38 -110 -150 -64 -62 -137 -123 -161 -135 l-43 -23
-17 29 c-27 46 -56 25 -89 -65 -36 -97 -148 -249 -247 -332 -53 -44 -82 -77
-98 -112 -21 -45 -27 -50 -56 -50 -30 0 -34 4 -44 39 -7 27 -7 47 1 70 12 33
8 48 -9 37 -6 -3 -29 -41 -52 -84 -82 -149 -179 -272 -369 -469 -201 -208
-202 -208 -389 -278 -39 -15 -70 -30 -67 -35 3 -4 34 -20 70 -36 52 -23 65
-33 70 -56 18 -82 -31 -148 -163 -219 -358 -191 -635 -349 -812 -462 -212
-135 -932 -628 -926 -634 2 -2 250 119 552 268 1059 523 1632 779 2084 931
394 132 626 195 779 213 74 9 136 14 138 12 2 -2 -39 -32 -90 -66 -92 -60 -99
-63 -373 -141 -405 -116 -767 -253 -1074 -405 -561 -280 -1127 -596 -1678
-937 -180 -111 -430 -259 -556 -329 -186 -104 -276 -162 -486 -316 -142 -103
-253 -189 -247 -191 7 -1 50 10 97 26 67 22 134 58 315 173 256 163 365 221
443 238 29 6 55 11 57 11 3 0 5 -10 5 -23 0 -17 -18 -36 -67 -72 -346 -252
-652 -479 -649 -482 2 -2 126 57 275 132 343 171 496 230 652 249 63 8 157 18
209 21 285 19 730 75 753 95 4 4 -13 24 -38 44 -57 48 -85 101 -85 164 0 149
60 178 485 231 323 40 540 55 600 40 25 -6 45 -13 45 -16 0 -25 -73 -69 -404
-244 -211 -112 -383 -205 -381 -207 1 -2 52 6 113 18 91 17 144 36 313 111
237 105 445 181 542 198 57 10 93 9 202 -4 l133 -16 279 119 c153 66 301 127
328 135 48 16 245 39 450 53 88 6 122 15 280 70 l180 64 121 0 c94 0 615 52
829 83 11 1 -20 10 -70 20 -68 12 -196 19 -530 27 -455 11 -618 24 -734 60
-72 21 -131 70 -131 107 0 38 60 85 195 154 110 57 165 77 360 132 281 80 284
81 333 68 31 -9 48 -23 80 -68 23 -32 63 -82 90 -112 l48 -53 76 30 c42 16
116 54 165 84 172 107 295 171 609 314 l318 144 206 46 c113 26 209 50 213 54
4 4 -26 10 -67 13 -97 9 -404 -37 -627 -93 -174 -44 -253 -50 -337 -25 -37 11
-56 23 -66 42 -13 25 -12 30 10 59 16 21 45 39 82 53 31 12 310 88 620 169
l564 148 -64 27 c-35 14 -119 36 -188 48 -120 20 -145 21 -620 14 -355 -4
-562 -12 -734 -26 -131 -11 -240 -18 -243 -16 -2 3 41 30 95 61 98 56 102 57
308 97 l209 40 555 -6 555 -6 80 72 c44 39 132 110 195 157 97 72 147 100 317
178 153 69 367 186 421 229 1 1 -5 24 -13 51 -22 71 -7 134 48 202 80 100 258
250 454 384 106 73 192 133 190 134 -1 2 -89 -6 -195 -17 l-192 -19 -67 34
-68 34 -200 7 c-129 5 -209 12 -225 20 -14 7 -90 18 -170 24 -130 10 -147 14
-168 35 l-23 23 64 56 65 57 206 0 c191 0 215 2 348 31 185 39 176 35 144 60
-26 20 -33 21 -222 14 l-194 -7 -40 27 -40 27 19 27 c28 38 506 231 573 231
37 0 50 -4 58 -20 14 -26 -7 -75 -56 -136 -20 -24 -35 -46 -33 -48 14 -11 79
-26 115 -26 35 0 47 -5 60 -25 15 -23 22 -25 93 -25 82 0 174 -15 332 -55
l101 -26 43 33 43 33 -56 6 c-68 6 -151 38 -208 78 -22 17 -71 38 -107 47
l-67 16 0 42 c0 46 28 101 86 170 34 42 66 58 422 223 l385 178 -90 9 c-76 7
-154 2 -507 -33 -230 -23 -430 -39 -446 -36 -16 3 -31 13 -34 21 -7 18 8 49
26 57 331 127 644 250 646 252 2 2 -46 31 -106 64 -114 64 -137 88 -119 128 7
15 99 64 333 174 178 84 322 154 320 156 -2 2 -84 8 -182 14 -125 7 -260 7
-448 -1 l-269 -11 -90 -46 c-50 -25 -108 -59 -128 -75 -50 -40 -85 -32 -166
39 -66 57 -117 135 -128 195 -6 30 -4 38 13 47 32 17 52 13 90 -15 l34 -27 -7
24 c-18 58 -35 78 -76 89 -35 10 -39 14 -33 33 3 12 7 22 8 22 15 0 42 28 44
47 7 55 18 57 268 60 l229 3 22 45 c26 55 87 106 151 126 26 7 120 22 210 31
89 9 157 20 150 24 -32 17 -127 30 -294 39 -172 10 -186 10 -264 -10 -104 -27
-181 -21 -205 16 -33 51 -11 96 64 123 236 88 533 150 881 184 l225 23 -230
37 c-126 20 -267 39 -312 43 l-82 6 -138 103 c-76 57 -153 106 -170 110 -26 5
-65 -6 -190 -53 -313 -118 -425 -150 -565 -162 l-127 -11 -114 61 c-134 71
-143 84 -102 154 25 43 28 45 93 55 37 6 130 18 207 26 117 13 159 22 253 57
61 22 112 46 112 51 0 6 -11 24 -24 41 -13 17 -37 59 -55 93 -26 53 -31 73
-31 136 0 82 11 100 70 117 24 7 40 5 63 -6 17 -9 54 -24 83 -34 52 -18 53
-18 59 1 4 11 -3 35 -15 57 -17 30 -38 47 -96 75 l-75 37 -37 -25 c-56 -38
-138 -35 -235 9 -82 37 -146 48 -387 66 -190 15 -290 40 -355 90 -43 33 -60
39 -120 45 -87 9 -125 27 -125 59 0 17 10 27 39 41 33 14 53 16 123 10 68 -6
97 -14 163 -47 l79 -40 251 7 c244 7 320 2 463 -30 l23 -6 -20 39 c-11 22 -27
42 -36 46 -9 3 -76 13 -148 21 -133 16 -177 24 -177 32 0 2 6 17 14 32 23 43
79 81 120 81 37 0 41 6 30 47 -8 30 -51 38 -99 17 -81 -33 -203 7 -367 122
-90 64 -188 173 -207 231 -13 38 -12 45 12 96 24 53 26 55 73 61 63 9 124 27
124 36 0 20 -28 29 -61 20 -69 -18 -233 -30 -416 -30 -152 0 -202 4 -263 20
-83 21 -89 26 -251 216 -38 45 -85 94 -105 109 -43 33 -74 100 -74 161 0 42
57 183 91 226 9 11 40 21 83 28 64 10 75 9 166 -19 53 -17 181 -71 284 -120
201 -97 195 -97 167 -19 -7 19 -146 128 -206 163 -53 30 -229 72 -340 80 -92
7 -373 66 -525 110 -47 13 -140 29 -210 35 -159 15 -609 110 -992 211 -21 5
-38 13 -38 17 1 22 25 32 108 47 l92 16 521 -51 c434 -42 540 -55 639 -80 65
-17 122 -30 127 -30 24 0 -98 60 -216 105 -75 29 -230 92 -346 140 -264 110
-338 135 -555 190 -108 27 -223 64 -300 96 l-124 53 49 23 c28 12 58 23 67 23
9 0 19 4 22 8 3 5 -54 13 -127 20 -163 14 -194 23 -202 63 -11 51 2 84 42 103
21 10 165 37 341 64 296 45 303 47 271 62 -26 11 -85 16 -256 18 -214 3 -231
2 -445 -32 -184 -29 -261 -36 -443 -41 l-220 -6 -320 -70 c-207 -46 -331 -68
-351 -64 -30 5 -54 36 -54 69 0 20 102 59 400 151 263 82 290 88 615 142 l340
57 -87 12 c-47 6 -160 14 -250 18 -576 23 -657 28 -712 42 -48 13 -74 13 -155
4 -124 -15 -336 -55 -428 -81 -68 -19 -74 -19 -104 -4 -28 15 -31 20 -26 51 3
19 22 56 41 83 35 48 37 49 298 155 l263 106 170 11 c94 6 177 13 185 16 8 3
-34 18 -95 34 -110 29 -111 29 -267 18 -170 -11 -178 -13 -608 -147 -107 -34
-271 -82 -365 -108 -168 -46 -171 -46 -276 -39 l-107 7 -21 -30 c-11 -17 -21
-44 -21 -60 0 -29 -4 -32 -67 -52 -38 -13 -91 -35 -119 -51 l-51 -29 -69 15
c-38 8 -105 15 -150 15 -44 0 -103 7 -130 15 -83 25 -171 -4 -268 -89 -86 -74
-831 -637 -888 -670 -45 -26 -47 -26 -53 -7 -17 53 55 122 430 413 231 179
327 247 475 334 202 118 363 191 447 200 29 4 55 10 58 14 2 4 -11 14 -30 23
-32 15 -38 14 -202 -32 -189 -54 -466 -162 -641 -250 -107 -55 -136 -76 -332
-247 -229 -199 -294 -241 -356 -229 -71 13 -44 95 64 196 31 30 206 171 389
314 183 142 331 261 329 262 -2 2 -55 -19 -118 -45 -122 -52 -182 -90 -608
-392 -289 -206 -536 -361 -654 -412 -140 -61 -163 -82 -270 -247 -51 -80 -108
-175 -126 -211 -18 -36 -41 -74 -51 -85 -11 -11 -25 -28 -32 -38 -29 -41 -111
24 -142 114 -21 59 -19 97 9 133 13 17 45 74 71 126 39 80 63 111 148 199 56
57 95 101 86 98 -8 -3 -67 -37 -129 -76 -62 -39 -119 -71 -127 -71 -16 0 -17
43 -1 73 22 43 81 108 132 145 28 20 116 91 196 157 80 66 304 236 498 379
194 142 351 261 349 263 -3 2 -51 -14 -108 -37 -84 -32 -138 -63 -279 -161
-121 -83 -229 -148 -350 -209 -240 -120 -444 -253 -588 -383 -64 -58 -164
-142 -222 -186 -134 -105 -248 -231 -363 -401 -158 -236 -211 -301 -325 -404
-154 -139 -209 -163 -233 -99 -20 52 -9 75 140 307 81 127 168 263 193 301 47
73 194 255 312 385 37 41 137 163 221 270 85 107 198 239 252 292 l98 97 435
211 c239 117 498 250 575 296 117 70 160 90 255 117 63 19 237 84 385 145 149
60 355 143 460 182 221 84 199 73 340 163 141 90 357 263 462 369 93 94 110
133 98 226 -14 114 -25 120 -178 101z m953 -1833 c0 -2 -71 -49 -159 -105
-152 -97 -162 -102 -246 -117 -48 -8 -89 -14 -91 -12 -2 2 4 27 12 54 l15 51
122 57 c104 48 135 57 207 65 104 10 140 12 140 7z m-2666 -682 c5 -20 -1 -35
-34 -74 -45 -54 -218 -220 -260 -250 l-28 -20 -21 52 -21 52 33 50 c37 55 118
120 224 178 81 45 99 47 107 12z m1716 -98 c0 -6 -276 -159 -390 -216 -157
-78 -420 -242 -555 -346 -114 -87 -275 -244 -395 -382 l-55 -63 -209 35 c-115
19 -213 39 -218 44 -4 4 73 77 172 162 206 176 217 182 732 441 367 184 667
308 773 319 74 9 145 11 145 6z m-4056 -108 c-4 -7 -104 -159 -222 -338 -179
-270 -228 -351 -287 -481 -97 -209 -141 -345 -160 -494 l-15 -120 37 -60 c20
-33 38 -63 40 -66 1 -4 -45 -43 -105 -87 -59 -44 -117 -93 -129 -109 -30 -41
-235 -254 -240 -250 -12 13 26 233 73 414 48 188 64 233 139 394 128 275 258
509 369 664 78 110 142 183 300 343 110 111 202 202 204 202 2 0 0 -6 -4 -12z
m8186 -550 l52 -22 -67 -34 -68 -34 -49 49 -49 48 38 6 c69 11 90 9 143 -13z
m-3371 -78 l270 -31 167 -59 c92 -33 169 -62 171 -64 11 -11 -435 -52 -817
-76 -458 -29 -706 -55 -810 -86 -330 -98 -485 -151 -584 -201 -107 -54 -110
-54 -155 -43 -101 25 -121 31 -121 39 0 4 91 71 203 148 263 183 403 253 628
316 162 46 170 47 435 66 148 10 285 19 306 20 20 0 158 -13 307 -29z m3825
11 l49 -6 -88 -62 c-84 -59 -91 -61 -166 -68 l-78 -7 -75 65 -75 65 72 12 c40
6 77 13 82 15 12 5 208 -5 279 -14z m-2809 -200 l49 -6 -90 -67 c-86 -64 -92
-67 -172 -78 l-83 -11 -70 62 c-38 34 -68 64 -65 66 3 3 44 15 93 28 89 24
178 25 338 6z m-3270 -486 c-69 -65 -121 -102 -225 -161 -74 -42 -216 -127
-315 -190 -173 -109 -184 -118 -291 -236 -190 -210 -292 -339 -359 -453 -81
-140 -148 -285 -174 -375 -18 -65 -18 -71 -3 -66 89 26 223 49 361 62 194 19
279 11 368 -34 l56 -29 -57 -23 c-65 -26 -169 -103 -209 -154 -43 -55 -93
-175 -116 -277 -25 -111 -31 -300 -17 -590 l9 -186 -69 -16 c-72 -18 -273 -52
-651 -111 -260 -41 -342 -59 -401 -88 l-43 -20 24 -27 c51 -54 54 -71 62 -326
12 -422 -27 -614 -211 -1030 l-84 -190 -128 -138 c-123 -133 -192 -187 -342
-267 -28 -15 -32 -21 96 155 143 199 250 402 308 587 52 165 88 328 111 508
14 104 14 147 5 284 -7 95 -9 227 -5 321 7 149 9 163 34 203 53 87 191 136
701 247 41 8 120 28 175 44 l100 28 0 324 0 324 29 55 c16 30 47 81 68 113 22
32 37 61 35 64 -6 6 -455 -14 -536 -24 l-53 -6 7 83 c6 69 17 106 67 224 32
78 89 195 125 261 58 103 85 139 197 259 186 198 400 385 631 554 l200 146
300 127 c165 70 302 127 305 127 3 1 -35 -37 -85 -83z m-2445 -760 c0 -2 -5
-28 -11 -57 -17 -78 -74 -184 -138 -258 -32 -36 -97 -112 -145 -170 -49 -58
-139 -161 -200 -229 l-111 -123 -125 -63 c-150 -74 -277 -108 -489 -130 -79
-8 -147 -15 -152 -15 -20 0 -5 41 72 189 131 254 204 312 574 452 273 103 278
106 405 213 78 67 145 113 210 146 92 48 110 55 110 45z m3554 -1103 c26 -38
26 -39 10 -85 l-16 -47 -46 1 c-59 0 -250 92 -219 104 16 7 221 62 238 64 4 1
18 -16 33 -37z m-256 -149 l143 -67 -83 -42 c-47 -23 -106 -45 -135 -49 -52
-7 -56 -5 -163 55 -60 34 -110 65 -110 69 0 6 180 96 200 100 3 1 69 -29 148
-66z m7065 -324 c45 -11 83 -22 85 -24 2 -1 -28 -19 -65 -40 -37 -20 -89 -51
-115 -68 -43 -29 -47 -35 -53 -84 -3 -29 -9 -53 -13 -53 -4 0 -36 -5 -71 -11
-59 -9 -65 -8 -86 11 -19 18 -30 20 -67 15 l-44 -7 -52 67 c-29 37 -52 71 -52
75 0 16 126 78 190 95 61 16 202 42 243 44 10 1 55 -8 100 -20z m-8854 -656
c-1 -149 -14 -274 -29 -283 -8 -5 -68 -23 -134 -40 -75 -20 -158 -51 -218 -81
-54 -27 -98 -45 -98 -39 0 6 20 50 44 98 52 104 192 280 268 337 79 59 149
105 159 105 5 0 9 -44 8 -97z m9135 -544 c66 -11 122 -22 124 -24 2 -2 -25
-19 -61 -39 -61 -34 -68 -36 -160 -36 l-97 0 0 -52 c0 -39 -5 -57 -22 -75
l-21 -23 -32 25 c-20 14 -58 28 -98 35 -44 8 -75 20 -97 39 l-32 27 70 57 c70
57 71 58 169 71 133 18 121 19 257 -5z m-14181 -218 c5 -5 -52 -34 -127 -66
-206 -87 -292 -158 -337 -276 -21 -54 -64 -223 -74 -289 -12 -75 -82 -132
-135 -110 -49 20 -64 79 -58 239 5 133 6 138 43 210 55 110 81 146 140 191 62
48 166 83 307 105 93 14 225 12 241 -4z m4956 -79 c11 -21 29 -89 41 -150 18
-96 19 -121 9 -176 -12 -72 -1 -65 -129 -86 -36 -6 -97 -20 -136 -31 l-72 -19
-72 26 -73 27 54 28 c82 41 261 245 313 357 16 34 33 62 38 62 4 0 16 -17 27
-38z m9136 -282 c93 -12 171 -22 172 -24 2 -2 -25 -21 -61 -42 -42 -25 -70
-50 -80 -70 -14 -31 -17 -32 -96 -39 -75 -7 -82 -9 -95 -35 -13 -25 -21 -29
-87 -35 -67 -6 -76 -10 -113 -46 -35 -34 -49 -40 -110 -48 -39 -6 -77 -11 -85
-11 -9 0 16 33 56 76 50 54 84 102 114 165 l43 88 76 19 c96 25 69 25 266 2z
m-9148 -488 c7 -4 17 -49 23 -100 11 -92 11 -93 -13 -126 -14 -17 -67 -60
-119 -94 -87 -57 -101 -63 -215 -87 l-121 -27 -44 20 -43 19 73 37 c188 95
325 201 383 298 40 67 52 76 76 60z m32 -659 l1 -71 -47 -39 c-55 -45 -155
-108 -228 -145 -43 -22 -68 -26 -177 -31 -71 -3 -128 -3 -128 -1 0 2 19 13 43
25 134 69 359 253 439 362 l52 70 23 -49 c16 -35 22 -69 22 -121z m8275 -68
c98 -19 181 -36 183 -39 2 -2 -218 -120 -489 -262 -271 -142 -496 -262 -499
-267 -4 -5 -9 -5 -12 1 -4 5 7 50 24 100 l30 90 97 63 c66 43 141 107 237 200
175 172 157 167 429 114z m-2586 -1333 l53 -28 -58 -47 c-41 -33 -78 -52 -128
-67 -38 -11 -113 -37 -166 -56 -95 -35 -96 -35 -132 -18 -21 10 -37 20 -37 23
1 6 185 114 313 184 38 20 76 37 85 37 9 -1 41 -13 70 -28z"/>
<path d="M12050 27653 l-95 -24 -85 -83 c-75 -73 -114 -101 -328 -225 -133
-78 -286 -162 -339 -187 -52 -25 -93 -47 -90 -50 3 -3 72 -1 154 5 l148 12
265 120 265 119 103 166 c57 92 102 167 100 169 -2 1 -46 -9 -98 -22z"/>
<path d="M22008 23423 c-30 -8 -20 -33 18 -49 42 -17 57 -9 52 27 -3 24 -31
33 -70 22z"/>
<path d="M22915 19536 c-82 -34 -178 -77 -213 -94 -49 -26 -73 -32 -109 -30
l-46 3 -27 -80 c-28 -83 -136 -304 -222 -458 -28 -49 -48 -90 -46 -93 3 -2 83
64 179 147 96 84 214 177 262 209 85 55 91 61 142 150 29 51 80 120 112 154
127 133 147 156 133 155 -8 0 -82 -29 -165 -63z"/>
<path d="M22322 18100 c-155 -15 -289 -30 -297 -34 -8 -3 -15 -13 -15 -23 -1
-40 -30 -94 -107 -203 -101 -143 -266 -297 -371 -347 -82 -39 -71 -41 61 -7
145 36 329 145 482 284 108 98 111 100 150 94 39 -5 41 -4 78 44 27 36 62 64
130 103 157 91 203 119 187 118 -8 -1 -142 -14 -298 -29z"/>
<path d="M27434 16961 c-263 -257 -657 -654 -875 -882 -577 -602 -882 -894
-1234 -1183 l-290 -237 -34 -89 -34 -89 -133 -123 c-73 -68 -131 -124 -129
-126 2 -2 55 28 117 67 72 45 252 184 498 386 420 345 939 816 1530 1388 179
173 326 313 328 312 9 -7 32 -228 33 -315 l1 -105 100 205 c55 113 161 342
234 510 84 190 179 387 255 523 66 121 118 221 116 223 -2 2 -219 -207 -483
-465z"/>
<path d="M15496 17313 c-4 -5 -83 -51 -176 -103 -160 -90 -582 -352 -576 -358
2 -1 45 2 97 8 91 10 98 13 244 95 209 117 330 203 370 262 61 91 67 103 58
103 -5 0 -13 -3 -17 -7z"/>
<path d="M21705 16919 c-203 -9 -386 -18 -405 -18 -33 -2 -38 -7 -88 -90 -42
-71 -72 -105 -153 -177 -58 -51 -129 -103 -167 -123 -37 -18 -69 -35 -72 -38
-11 -10 49 -43 98 -53 28 -6 52 -13 52 -14 0 -12 -209 -125 -270 -147 l-75
-27 88 -7 88 -7 127 47 c144 54 206 84 342 163 247 144 359 218 425 282 99 95
142 117 275 140 62 11 119 25 129 32 9 7 29 23 44 35 l29 23 -49 -1 c-26 -1
-214 -10 -418 -20z"/>
<path d="M16155 15569 c-62 -9 -277 -98 -276 -115 1 -5 39 -10 85 -12 77 -2
86 -1 96 18 6 11 36 33 68 50 58 30 115 70 97 69 -5 -1 -37 -5 -70 -10z"/>
<path d="M15335 15461 c-71 -21 -224 -76 -340 -123 -115 -48 -271 -105 -345
-128 -206 -63 -598 -259 -568 -285 12 -9 509 157 683 228 174 72 255 99 475
157 146 38 329 89 408 113 l142 43 -47 17 c-35 13 -78 17 -163 16 -102 0 -130
-5 -245 -38z"/>
<path d="M20935 15440 c-180 -54 -197 -58 -330 -64 -119 -6 -172 -14 -351 -57
l-210 -50 -109 -119 c-72 -81 -143 -146 -217 -201 -60 -45 -107 -83 -105 -86
3 -2 77 14 166 37 149 37 179 49 361 140 192 96 206 101 400 150 195 49 208
54 403 151 111 56 205 107 209 113 14 21 9 46 -9 45 -10 -1 -103 -27 -208 -59z"/>
<path d="M25095 15233 c-210 -179 -282 -234 -453 -344 -112 -72 -218 -139
-235 -148 -18 -10 -129 -44 -247 -76 -118 -32 -217 -60 -219 -62 -3 -2 6 -15
20 -28 22 -23 37 -25 213 -40 l190 -16 127 86 c88 60 215 167 418 349 279 251
295 268 367 375 42 62 74 114 72 115 -2 2 -115 -93 -253 -211z"/>
<path d="M15762 15234 c-272 -29 -868 -203 -1242 -364 -113 -49 -268 -113
-345 -143 -127 -50 -715 -302 -719 -309 -1 -2 -24 -33 -50 -70 -26 -38 -42
-68 -35 -68 7 0 98 22 203 50 211 54 377 92 382 87 6 -6 -200 -285 -275 -372
l-72 -84 -225 -121 c-202 -110 -239 -126 -381 -169 -184 -55 -141 -34 -468
-226 -143 -84 -420 -232 -615 -330 -195 -97 -533 -274 -750 -393 -423 -232
-467 -253 -1037 -488 -351 -145 -794 -356 -1153 -550 -117 -63 -116 -62 25 61
95 83 114 94 410 243 171 85 483 237 695 337 315 148 402 193 478 249 51 38
91 71 88 74 -9 9 -209 -69 -484 -190 -713 -312 -1090 -520 -1747 -966 -193
-132 -217 -151 -299 -245 -48 -56 -117 -145 -153 -198 -55 -83 -81 -110 -176
-185 -187 -148 -672 -562 -845 -721 -139 -127 -359 -369 -347 -381 2 -2 84 53
182 124 154 110 207 142 393 232 190 92 608 267 617 258 2 -2 -25 -27 -60 -55
-35 -28 -110 -104 -168 -169 -57 -64 -196 -213 -309 -332 -113 -118 -304 -331
-425 -473 l-219 -257 -126 0 -126 0 -66 -67 c-59 -60 -76 -86 -137 -215 -52
-110 -74 -169 -86 -233 -22 -121 -94 -282 -222 -502 -227 -389 -367 -656 -489
-935 l-123 -279 -9 -117 c-5 -64 -9 -118 -7 -120 1 -1 82 166 181 370 190 396
340 660 607 1076 181 280 524 736 745 990 167 191 188 212 377 361 285 225
526 397 786 560 215 134 232 143 335 171 59 16 109 28 111 26 2 -1 -111 -105
-251 -231 -176 -157 -298 -277 -393 -384 -76 -85 -227 -248 -335 -361 -417
-437 -660 -756 -976 -1282 -215 -357 -275 -480 -342 -697 -31 -103 -67 -214
-79 -246 -12 -32 -20 -60 -17 -62 2 -2 23 5 46 17 46 24 395 158 630 243 138
50 173 59 319 77 106 14 184 18 222 14 33 -4 58 -8 56 -11 -3 -2 -60 -14 -128
-28 -230 -44 -297 -65 -444 -138 -105 -52 -161 -87 -224 -141 -45 -39 -96 -81
-111 -94 l-28 -22 -48 20 -47 21 -77 -26 c-117 -39 -317 -191 -483 -368 l-127
-136 -54 -129 c-30 -71 -57 -149 -60 -173 -4 -24 -9 -56 -12 -70 l-5 -26 108
32 c67 20 142 35 198 39 l90 7 -40 -37 c-302 -280 -291 -268 -320 -353 -20
-61 -45 -104 -114 -198 -49 -67 -94 -122 -100 -124 -7 -3 -2 -33 17 -89 37
-113 127 -235 256 -349 84 -74 206 -160 229 -161 11 0 -1 65 -25 132 -16 46
-33 68 -88 117 -92 82 -93 93 -25 186 31 41 59 75 63 75 4 1 20 11 35 24 l28
23 -21 53 c-27 68 -22 88 43 168 37 46 95 95 202 172 83 59 197 144 255 190
146 114 167 143 110 155 -17 4 -43 18 -59 31 -24 20 -30 35 -36 82 -8 70 9
170 37 226 12 23 52 85 91 138 69 95 75 101 251 222 414 284 674 435 776 450
104 16 101 14 98 53 -3 33 -7 37 -55 55 -51 20 -51 20 -67 84 -9 34 -16 81
-16 102 0 37 5 43 78 100 54 43 114 78 202 117 111 49 144 59 300 86 150 26
192 30 295 26 66 -2 140 -11 165 -19 l45 -14 -115 -48 c-270 -113 -424 -206
-461 -278 -17 -32 -16 -33 11 -68 52 -66 73 -118 65 -166 -3 -24 -8 -44 -11
-44 -3 0 -66 -7 -141 -16 -246 -28 -386 -103 -700 -371 -144 -122 -173 -152
-252 -261 -78 -108 -91 -133 -105 -194 -11 -47 -13 -75 -6 -86 25 -44 22 -44
116 -22 107 25 241 20 269 -10 14 -15 13 -18 -12 -29 -16 -7 -77 -26 -138 -42
-106 -28 -116 -33 -277 -141 -110 -74 -171 -122 -178 -139 -9 -20 -7 -43 9
-105 11 -44 25 -149 31 -238 9 -135 14 -166 33 -195 167 -274 179 -289 319
-404 73 -60 142 -113 153 -118 38 -16 177 -51 182 -46 2 3 -24 43 -59 90 -34
46 -98 153 -141 238 l-79 155 25 92 c14 50 31 100 39 110 121 169 268 306 484
450 128 85 372 213 489 255 39 14 97 35 130 48 l60 22 -55 14 c-37 9 -110 12
-226 11 -130 -2 -175 1 -187 11 -15 11 -10 25 42 129 l59 117 89 61 c49 34
158 97 243 139 152 76 160 79 450 152 l295 74 115 -6 c63 -4 164 -13 224 -21
l109 -14 191 74 c246 95 395 141 526 162 76 12 123 25 173 50 74 38 111 44
477 84 107 12 199 25 203 29 5 5 2 22 -7 38 -8 17 -24 83 -35 148 -11 65 -22
119 -23 120 -197 151 -284 209 -362 239 -48 19 -100 37 -114 40 -127 24 -142
29 -142 41 0 7 29 29 64 49 l64 36 103 -19 c57 -11 138 -33 179 -49 41 -16
144 -44 228 -62 84 -17 214 -54 289 -81 111 -40 147 -58 192 -97 145 -122 186
-179 206 -287 9 -43 14 -79 13 -81 -2 -1 -109 -21 -239 -43 -130 -22 -393 -75
-585 -116 -324 -69 -367 -81 -579 -159 -127 -46 -338 -127 -470 -180 l-240
-96 -160 0 c-147 0 -175 -3 -320 -35 -284 -63 -635 -193 -730 -271 -45 -36
-45 -36 -28 -64 l16 -28 151 -6 c229 -11 493 -34 573 -52 l73 -16 49 -91 c27
-51 48 -93 47 -94 -6 -6 -144 46 -203 76 l-62 31 -197 0 c-178 0 -205 -2 -288
-25 -123 -34 -337 -126 -397 -171 l-48 -37 33 -37 c19 -21 43 -64 55 -96 21
-55 21 -60 7 -98 -9 -23 -45 -74 -80 -115 -61 -71 -66 -79 -90 -177 l-26 -103
22 -46 c12 -25 25 -45 29 -45 4 0 59 33 121 73 68 43 300 163 578 299 l465
226 135 7 c74 3 193 11 265 16 121 9 134 12 192 45 l63 35 257 -11 c171 -7
273 -16 303 -25 69 -22 404 -55 564 -55 102 0 156 -4 186 -15 52 -18 50 -18
50 0 0 40 -51 113 -117 166 -62 50 -189 132 -270 173 -26 13 -33 23 -33 46 0
41 33 56 166 75 182 27 372 64 414 81 37 15 40 19 40 53 0 21 -7 60 -15 87
-16 54 -54 92 -130 132 -47 24 -116 93 -139 140 l-17 32 44 0 c25 0 141 -13
258 -30 204 -29 216 -31 274 -67 99 -60 173 -123 221 -187 l46 -61 -7 -70 c-5
-57 -11 -75 -33 -98 -61 -65 -181 -99 -387 -112 -121 -7 -175 -14 -175 -24 0
-4 45 -29 101 -56 91 -45 109 -59 180 -136 58 -63 79 -94 79 -113 0 -15 5 -36
10 -47 10 -18 24 -19 275 -19 264 0 265 0 430 35 123 26 183 44 237 71 72 37
449 157 1043 334 165 49 444 139 620 200 176 61 485 162 687 226 509 160 816
269 1218 432 235 95 442 171 650 237 280 90 322 106 514 202 150 75 274 128
440 188 424 152 620 232 851 348 207 103 256 123 495 200 533 173 992 397
1330 647 102 76 277 195 390 265 113 70 254 166 314 213 59 46 184 138 278
202 146 102 228 173 214 187 -2 3 -39 -16 -83 -41 -137 -79 -249 -113 -436
-132 -89 -9 -163 -17 -165 -19 -2 -2 -10 -32 -18 -66 -8 -35 -21 -69 -28 -74
-8 -6 -19 -38 -25 -70 -10 -55 -15 -64 -68 -112 -63 -57 -268 -186 -402 -253
-144 -72 -346 -137 -478 -155 -65 -9 -206 -31 -313 -50 -225 -40 -400 -61
-585 -70 -129 -7 -130 -7 -153 17 l-22 25 200 193 c360 346 487 457 572 501
141 71 509 303 723 454 185 131 228 157 365 218 269 119 267 118 435 260 120
102 195 176 299 296 76 88 166 186 200 218 721 676 1115 1094 1355 1438 85
121 103 157 116 230 l7 40 -33 -39 c-18 -21 -70 -63 -115 -92 -97 -63 -229
-131 -218 -112 4 7 32 45 60 84 29 39 86 123 127 185 85 131 120 164 296 274
69 42 213 143 320 224 108 81 228 169 266 196 39 28 194 153 345 278 219 182
292 249 359 329 46 55 79 99 74 97 -5 -2 -83 -48 -174 -101 -148 -88 -188
-118 -414 -314 -239 -206 -463 -382 -789 -619 -130 -94 -264 -178 -385 -240
l-35 -18 19 29 c10 16 29 45 41 64 13 19 124 130 246 245 122 116 346 334 498
485 151 152 309 303 350 337 100 82 410 423 385 423 -3 0 -41 -18 -84 -39 -64
-33 -92 -55 -157 -127 -43 -48 -149 -146 -234 -217 -85 -72 -240 -217 -345
-322 -201 -204 -417 -403 -475 -440 -19 -12 -57 -34 -84 -50 -48 -28 -48 -28
-36 -5 34 64 88 135 184 245 58 66 103 121 102 123 -2 1 -34 -15 -73 -37 -50
-29 -84 -59 -124 -108 -120 -150 -250 -273 -409 -386 -85 -60 -218 -162 -295
-227 -103 -86 -221 -169 -449 -314 -330 -211 -405 -251 -809 -437 -243 -112
-348 -164 -470 -234 l-48 -27 28 56 c41 84 165 178 352 268 171 81 381 210
468 287 35 30 62 56 60 57 -10 11 -235 -85 -315 -135 -53 -32 -160 -90 -237
-129 -139 -69 -270 -145 -540 -310 -123 -75 -263 -176 -375 -271 l-34 -29 119
-7 c97 -6 129 -12 168 -31 26 -14 47 -26 47 -28 0 -2 -69 -41 -152 -87 -84
-46 -220 -125 -301 -176 -185 -116 -166 -107 -399 -202 -106 -44 -238 -100
-293 -126 -69 -32 -154 -59 -280 -91 -99 -24 -222 -59 -273 -77 l-93 -32 56
-25 56 -25 -52 -85 c-37 -61 -90 -124 -188 -223 -113 -115 -158 -152 -266
-222 -72 -47 -140 -97 -152 -112 -44 -61 -607 -375 -703 -393 -54 -10 -57 -13
-310 -263 -140 -139 -367 -352 -505 -474 -315 -280 -1180 -982 -1429 -1162
-104 -75 -334 -244 -510 -375 -302 -226 -329 -243 -460 -303 -76 -35 -140 -62
-142 -60 -2 2 121 107 274 234 152 127 333 281 402 343 69 62 213 183 320 268
107 86 236 189 285 231 148 124 652 571 910 806 252 230 557 503 607 543 29
24 74 100 64 109 -2 3 -51 -9 -108 -27 -57 -17 -112 -34 -122 -37 -33 -9 30
61 299 338 277 286 412 397 635 526 l119 68 6 71 7 72 152 109 c175 127 406
276 661 426 140 82 193 108 238 116 50 9 147 54 147 68 0 2 -51 1 -112 -2
-112 -8 -114 -8 -228 -65 -63 -32 -218 -115 -345 -185 -126 -70 -409 -217
-628 -326 l-398 -199 -25 -59 c-24 -55 -29 -60 -70 -70 -36 -9 -50 -9 -74 4
-17 9 -30 19 -30 23 0 4 5 38 11 77 9 64 13 73 52 107 23 20 38 37 32 38 -5 0
-90 -16 -188 -35 -174 -33 -181 -35 -260 -86 -45 -28 -143 -99 -217 -157 -177
-139 -168 -132 -146 -97 126 198 147 223 280 333 97 80 162 125 251 172 66 34
224 122 350 195 127 73 299 167 384 210 153 76 154 77 212 70 58 -7 59 -7 109
35 l50 42 84 -7 c46 -4 103 -4 126 0 40 7 43 10 71 73 24 52 57 94 167 210 75
80 199 215 274 301 76 86 178 190 228 231 84 69 97 84 162 197 l70 123 137 71
c101 54 164 95 246 164 61 50 175 132 255 180 177 109 359 243 383 284 10 17
14 31 8 31 -62 0 -348 -165 -676 -390 -93 -64 -233 -156 -310 -204 -77 -47
-179 -114 -226 -147 -80 -56 -98 -64 -269 -115 -160 -47 -199 -63 -304 -124
-76 -43 -153 -79 -205 -95 -46 -14 -86 -24 -88 -22 -9 9 365 293 477 362 6 4
86 26 177 50 157 41 174 49 332 136 281 156 453 266 483 306 16 20 26 38 25
40 -9 9 -132 -44 -226 -97 -138 -77 -269 -134 -526 -230 -115 -43 -279 -106
-364 -139 l-154 -61 -106 -103 c-153 -148 -289 -262 -426 -357 -230 -161 -649
-320 -881 -336 -113 -7 -101 -15 -124 71 -9 34 -23 49 -89 98 l-80 58 -60 -30
c-140 -71 -493 -219 -716 -301 -132 -48 -318 -122 -414 -164 -200 -87 -650
-228 -1471 -460 -146 -41 -373 -106 -505 -145 -141 -42 -318 -86 -430 -108
-104 -19 -193 -38 -197 -42 -4 -3 7 -23 25 -44 32 -37 34 -38 146 -52 63 -8
116 -17 118 -19 2 -2 -4 -50 -12 -106 -15 -102 -16 -104 -70 -170 -58 -70
-270 -281 -395 -391 -85 -75 -308 -242 -588 -439 l-191 -135 -21 -70 c-12 -38
-23 -78 -26 -87 -5 -18 -97 -43 -117 -32 -7 4 -56 34 -109 67 l-97 60 -40 96
-41 96 34 105 c92 291 331 665 646 1010 107 117 195 225 227 276 29 46 50 84
45 84 -4 0 -95 -32 -202 -70 -107 -39 -347 -113 -534 -165 -570 -159 -1260
-432 -1906 -755 -336 -168 -385 -189 -474 -209 -54 -12 -100 -20 -102 -18 -6
6 511 336 611 390 50 27 443 227 875 445 755 380 788 396 864 406 72 10 80 13
87 36 4 14 18 58 30 98 l21 73 179 89 c98 49 292 159 431 243 318 193 723 405
1029 540 131 58 254 118 278 137 22 18 40 35 38 36 -7 7 -324 -101 -716 -245
-228 -83 -489 -171 -580 -197 -321 -88 -539 -167 -966 -353 -115 -50 -254
-105 -310 -123 l-100 -31 -202 5 c-214 6 -242 12 -223 49 6 11 37 26 78 38 65
20 71 24 232 186 186 187 249 231 475 333 200 91 267 127 300 162 25 27 26 31
10 27 -11 -3 -59 -8 -106 -12 -112 -9 -149 7 -149 61 0 83 18 119 83 167 34
25 107 84 161 130 80 69 108 86 141 92 58 8 100 51 90 93 -6 28 -11 31 -57 37
-48 7 -52 6 -74 -23 -31 -39 -100 -56 -186 -47 -104 10 -118 15 -118 36 0 10
4 19 8 19 12 0 301 167 442 255 65 41 169 99 231 131 131 65 506 269 624 339
44 26 179 97 300 156 312 154 650 332 790 417 66 39 197 131 290 203 94 72
222 167 285 211 63 44 135 102 160 129 43 47 51 51 152 78 91 25 115 36 159
73 l52 43 -74 8 c-90 10 -182 27 -198 36 -25 16 4 40 88 76 l88 36 33 69 c33
68 33 68 113 104 45 20 281 97 526 171 382 115 624 193 733 236 15 6 29 17 32
25 6 16 10 16 -172 -2z m-5928 -3462 l-35 -91 -122 -75 -122 -76 -93 0 -94 0
57 64 c51 58 76 75 248 170 105 58 193 104 194 102 2 -1 -13 -44 -33 -94z
m11211 -571 l-45 -90 -172 -113 c-95 -63 -190 -124 -210 -137 -41 -24 -368
-124 -377 -115 -3 3 6 16 20 27 190 155 230 182 414 284 110 61 247 138 305
172 58 34 106 61 108 61 1 0 -18 -40 -43 -89z m87 -187 c-34 -100 -49 -126
-181 -314 -261 -370 -479 -570 -945 -863 -244 -153 -607 -353 -590 -325 50 83
89 137 150 210 41 47 74 89 74 93 0 8 -128 -61 -370 -200 -348 -201 -902 -466
-925 -443 -2 2 24 39 58 81 56 70 86 94 322 255 143 98 357 249 475 336 218
161 608 411 1050 671 217 128 397 248 769 512 80 56 146 101 148 99 2 -1 -14
-52 -35 -112z m-4408 28 c-191 -175 -236 -210 -449 -349 -126 -82 -236 -153
-243 -157 -15 -9 -264 -77 -268 -73 -1 1 18 35 43 74 l45 73 331 169 c183 93
388 201 457 240 69 39 127 71 130 70 3 0 -18 -21 -46 -47z m-1258 -769 c-4
-38 -9 -93 -12 -124 l-6 -57 -115 -83 c-64 -46 -121 -87 -128 -91 -14 -9 -285
-31 -292 -25 -2 3 3 29 12 58 12 42 33 75 94 144 l79 90 179 77 c98 42 182 77
187 77 4 1 5 -29 2 -66z m2943 -1842 l45 -6 -161 -93 c-88 -50 -262 -141 -387
-202 -225 -109 -228 -110 -368 -135 -78 -14 -146 -21 -150 -17 -7 7 100 254
116 270 21 20 287 107 456 148 204 50 220 52 310 47 52 -3 115 -8 139 -12z"/>
<path d="M27265 14853 c-49 -71 -238 -337 -421 -593 -288 -404 -364 -503 -576
-750 -209 -244 -311 -351 -714 -749 -258 -255 -586 -570 -729 -699 -535 -485
-739 -680 -955 -917 -281 -309 -602 -593 -957 -849 -133 -96 -364 -270 -515
-388 -636 -499 -1150 -863 -1486 -1052 -199 -112 -1063 -541 -1637 -813 -330
-156 -448 -206 -764 -324 -284 -105 -393 -141 -454 -149 -84 -12 -96 -8 -97
32 0 9 -3 19 -7 21 -5 3 -75 -14 -158 -38 -120 -34 -201 -66 -400 -160 -553
-259 -2378 -928 -3425 -1256 -212 -66 -578 -183 -815 -259 -306 -99 -504 -157
-684 -200 -314 -74 -501 -132 -864 -266 -231 -85 -971 -393 -964 -401 2 -1 70
5 152 13 83 7 402 34 710 59 308 25 715 61 905 80 493 50 1322 111 1910 140
278 14 728 43 1000 65 867 69 1426 98 1980 105 1132 13 1513 30 2390 104 261
23 436 31 715 36 l370 7 295 49 c679 112 1150 206 1538 304 526 134 717 192
1527 465 694 233 1604 561 2155 775 151 59 333 127 405 151 l129 44 164 0 164
0 72 -45 c64 -39 76 -52 101 -105 16 -33 31 -60 34 -60 3 0 24 25 46 56 50 70
494 477 729 667 115 94 187 160 203 186 13 23 22 41 19 41 -2 0 -238 -102
-523 -226 -296 -129 -638 -270 -798 -329 -154 -57 -368 -141 -475 -188 -240
-105 -717 -285 -1245 -468 l-400 -140 -45 21 -46 21 -144 -36 c-128 -33 -154
-36 -221 -30 -108 9 -214 -8 -540 -85 -218 -52 -331 -74 -468 -89 -100 -12
-183 -21 -186 -21 -2 0 -18 20 -36 45 l-32 45 -194 0 c-183 0 -209 -3 -461
-45 -147 -24 -361 -56 -476 -71 -144 -18 -228 -33 -273 -50 -35 -13 -65 -24
-67 -24 -2 0 -20 44 -40 98 -35 92 -40 99 -95 139 -54 40 -65 43 -153 53 -83
9 -112 8 -214 -9 -66 -11 -182 -25 -259 -31 l-140 -11 -35 -39 -35 -40 -73 19
c-41 11 -75 21 -78 23 -2 2 3 28 11 58 13 50 13 60 -5 120 -19 62 -24 68 -93
118 l-72 54 -195 -7 -195 -7 -52 -40 -51 -39 -87 15 c-49 9 -90 17 -92 19 -2
3 1 26 7 52 10 44 8 76 -7 129 -5 17 -13 17 -102 11 l-98 -7 -72 37 c-40 20
-71 38 -69 40 2 2 75 16 162 31 l159 26 256 122 c141 67 391 196 556 287 284
156 314 175 560 361 143 107 382 290 530 407 243 190 277 213 344 236 41 14
76 23 78 22 14 -15 24 -138 18 -227 -4 -58 -5 -103 -2 -100 21 24 212 389 292
560 78 165 118 238 174 313 40 54 71 100 68 103 -9 9 -289 -217 -527 -424
-397 -348 -779 -608 -1532 -1046 -195 -113 -252 -142 -325 -162 -48 -13 -89
-24 -91 -24 -2 0 30 38 72 84 69 76 101 99 368 271 319 205 849 572 1328 921
227 166 378 285 590 469 185 160 381 318 560 450 l275 204 241 263 c133 145
354 396 492 558 137 162 381 437 542 610 160 173 302 335 315 360 24 46 71 98
700 775 375 403 651 723 1108 1285 200 246 280 354 414 560 147 224 169 264
185 329 11 40 18 77 16 82 -2 5 -43 -48 -93 -118z"/>
<path d="M12005 14601 c-194 -71 -483 -206 -590 -276 l-40 -26 104 7 c101 6
108 8 316 94 117 48 221 94 232 101 40 29 213 171 213 175 0 9 -37 -2 -235
-75z"/>
<path d="M11750 14279 c-138 -64 -275 -119 -382 -153 -146 -47 -177 -60 -238
-106 -38 -28 -68 -55 -65 -59 2 -4 28 -13 57 -20 51 -11 60 -9 202 33 132 40
166 55 315 141 132 76 185 113 256 180 50 47 86 84 80 84 -5 0 -107 -45 -225
-100z"/>
<path d="M12547 13091 c-92 -50 -116 -67 -163 -125 -31 -37 -54 -70 -51 -73 3
-2 69 28 148 69 142 73 142 73 161 122 10 27 17 52 16 57 -2 4 -52 -18 -111
-50z"/>
<path d="M17376 12029 c-169 -49 -426 -155 -471 -195 l-40 -35 94 7 c127 9
268 64 431 169 66 43 120 79 120 81 0 8 -40 0 -134 -27z"/>
</g>
</svg>
